<svg width="40" height="40" viewBox="0 0 40 40" fill="none" xmlns="http://www.w3.org/2000/svg">
<g clip-path="url(#clip0_2_4714)">
<path d="M39.3688 24.8375C38.416 28.6792 36.3447 32.1518 33.4174 34.8155C30.4901 37.4792 26.8383 39.2143 22.9244 39.801C19.0106 40.3878 15.0106 39.7998 11.4311 38.1115C7.85156 36.4232 4.85339 33.7106 2.81621 30.3171C0.779018 26.9236 -0.205573 23.0018 -0.0129032 19.0483C0.179767 15.0948 1.54103 11.2874 3.89854 8.1081C6.25604 4.92883 9.50377 2.52069 13.2305 1.1886C16.9572 -0.143497 20.9954 -0.339645 24.8336 0.624991C29.9671 1.91514 34.3797 5.18823 37.1043 9.72685C39.8289 14.2655 40.6433 19.6994 39.3688 24.8375Z" fill="#6E7CCA"/>
<g opacity="0.24">
<path d="M39.3689 24.8375C38.2925 29.1562 35.8065 32.9924 32.3045 35.7388C28.8025 38.4852 24.4845 39.9847 20.0344 40C18.3903 39.9903 16.7535 39.7805 15.1601 39.375C11.3326 38.4115 7.87565 36.3367 5.22486 33.4119C2.57408 30.4871 0.847985 26.8431 0.263996 22.939C-0.319993 19.0349 0.264247 15.0452 1.94312 11.4726C3.622 7.89996 6.32042 4.90413 9.69849 2.86246C13.0876 0.83628 17.0006 -0.141067 20.9443 0.0536235C24.888 0.248314 28.6857 1.60633 31.8589 3.95648C35.032 6.30663 37.4385 9.54372 38.775 13.2597C40.1115 16.9757 40.3181 21.0042 39.3689 24.8375Z" fill="white"/>
</g>
<g opacity="0.3">
<path d="M38.8002 13.2063L0.256196 23.2063C-0.539683 18.2886 0.528052 13.251 3.25041 9.07924C5.97278 4.90753 10.1538 1.90212 14.9751 0.65127C19.7964 -0.599585 24.9108 -0.00583497 29.3175 2.3163C33.7241 4.63844 37.1056 8.5218 38.8002 13.2063Z" fill="white"/>
</g>
<path d="M35.7569 23.9313C34.9804 27.0502 33.2966 29.8687 30.9183 32.0305C28.5401 34.1922 25.5744 35.6 22.3961 36.0758C19.2179 36.5517 15.9699 36.0741 13.0631 34.7036C10.1562 33.3332 7.72099 31.1313 6.06539 28.3765C4.4098 25.6217 3.60821 22.4377 3.762 19.2273C3.91578 16.0168 5.01804 12.924 6.92937 10.3402C8.84069 7.75627 11.4752 5.79732 14.4998 4.71105C17.5243 3.62478 20.803 3.46 23.9212 4.23752C28.1015 5.27989 31.6968 7.94015 33.9163 11.6333C36.1358 15.3264 36.7979 19.75 35.7569 23.9313Z" fill="#6E7CCA"/>
<path d="M19.9969 24.375L20.1593 24.5312L27.4457 20.225L20.1718 8.125L20.0094 8.6625L19.9969 24.375Z" fill="#FFFDFE"/>
<path d="M20.1719 24.5312V8.125L12.8792 20.225L20.1719 24.5312Z" fill="#B0E7FF"/>
<path d="M20.0781 31.6125L20.1718 31.875L27.4957 21.6062L20.1718 25.9125L20.0781 26.0187V31.6125Z" fill="#FFFDFF"/>
<path d="M12.8792 21.6062L20.1719 31.875V25.9125L12.8792 21.6062Z" fill="#B0E7FF"/>
<path d="M20.1718 16.9126V24.5313L27.4582 20.2251L20.1718 16.9126Z" fill="#FFFDFF"/>
<path d="M20.1719 16.9126L12.8792 20.2251L20.1719 24.5313V16.9126Z" fill="#C8F7F7"/>
</g>
<defs>
<clipPath id="clip0_2_4714">
<rect width="40" height="40" fill="white"/>
</clipPath>
</defs>
</svg>
