<svg width="40" height="40" viewBox="0 0 40 40" fill="none" xmlns="http://www.w3.org/2000/svg">
<g clip-path="url(#clip0_2_4758)">
<path d="M39.375 24.8375C38.422 28.6792 36.3504 32.1518 33.4226 34.8155C30.4948 37.4792 26.8425 39.2143 22.928 39.801C19.0135 40.3878 15.013 39.7998 11.4329 38.1115C7.85279 36.4232 4.85416 33.7106 2.81665 30.3171C0.779145 26.9236 -0.205599 23.0018 -0.0128995 19.0483C0.1798 15.0948 1.54128 11.2874 3.89915 8.1081C6.25703 4.92883 9.50525 2.52069 13.2326 1.1886C16.9599 -0.143497 20.9986 -0.339645 24.8375 0.624991C29.9718 1.91514 34.3851 5.18823 37.1101 9.72685C39.8352 14.2655 40.6496 19.6994 39.375 24.8375Z" fill="#E84142"/>
<g opacity="0.24">
<path d="M20 40.0001C16.9644 39.9953 13.9697 39.2997 11.2429 37.9658C8.51611 36.632 6.1287 34.6949 4.26162 32.3014C2.39454 29.9079 1.09679 27.1209 0.466705 24.1514C-0.163375 21.1819 -0.109248 18.108 0.624986 15.1626C1.91513 10.0283 5.18822 5.615 9.72685 2.88995C14.2655 0.164898 19.6994 -0.649569 24.8375 0.625066C29.5467 1.83043 33.6557 4.70961 36.3963 8.72434C39.137 12.7391 40.3217 17.6145 39.7289 22.4392C39.1362 27.264 36.8065 31.7077 33.1756 34.9396C29.5446 38.1715 24.8609 39.9705 20 40.0001ZM20 3.75007C16.3753 3.75288 12.8556 4.96749 10.0006 7.20075C7.1456 9.43401 5.11924 12.5577 4.24374 16.0751C3.35583 20.1996 4.10692 24.5079 6.33815 28.0886C8.56939 31.6694 12.1058 34.242 16.1996 35.2625C20.2934 36.2829 24.6236 35.6711 28.2745 33.5564C31.9253 31.4418 34.6106 27.9901 35.7625 23.9313C36.8038 19.7509 36.1425 15.3281 33.9239 11.6351C31.7053 7.94213 28.111 5.28131 23.9312 4.23757C22.6452 3.9176 21.3252 3.75392 20 3.75007Z" fill="white"/>
</g>
<g opacity="0.3">
<path d="M38.8062 13.2063L0.256236 23.2063C-0.539767 18.2886 0.528135 13.251 3.25092 9.07924C5.97371 4.90753 10.1554 1.90212 14.9774 0.65127C19.7995 -0.599585 24.9147 -0.00583497 29.3221 2.3163C33.7294 4.63844 37.1114 8.5218 38.8062 13.2063Z" fill="white"/>
</g>
<path d="M35.7625 23.9313C34.9859 27.0502 33.3018 29.8687 30.9232 32.0305C28.5446 34.1922 25.5784 35.6 22.3996 36.0758C19.2209 36.5517 15.9724 36.0741 13.0651 34.7036C10.1578 33.3332 7.72219 31.1313 6.06634 28.3765C4.41049 25.6217 3.60877 22.4377 3.76258 19.2273C3.91639 16.0168 5.01882 12.924 6.93045 10.3402C8.84207 7.75627 11.477 5.79732 14.502 4.71105C17.5271 3.62478 20.8063 3.46 23.925 4.23752C28.1059 5.27989 31.7017 7.94015 33.9216 11.6333C36.1415 15.3264 36.8036 19.75 35.7625 23.9313Z" fill="#E84142"/>
<path d="M25.0312 20.4251C25.525 19.5688 26.3187 19.5688 26.8187 20.4251L29.8937 25.8251C30.3875 26.6813 29.9812 27.3751 28.9937 27.3751H22.7937C21.8187 27.3751 21.4125 26.6813 21.8937 25.8251L25.0312 20.4251ZM19.075 10.0001C19.5687 9.14385 20.3562 9.14385 20.85 10.0001L21.5375 11.2501L23.1562 14.0938C23.3504 14.4953 23.4513 14.9354 23.4513 15.3813C23.4513 15.8273 23.3504 16.2674 23.1562 16.6688L17.7312 26.0438C17.4874 26.419 17.1593 26.732 16.7729 26.9577C16.3866 27.1835 15.9528 27.3157 15.5062 27.3438H11C10.0125 27.3438 9.60623 26.6626 10.1 25.7938L19.075 10.0001Z" fill="white"/>
</g>
<defs>
<clipPath id="clip0_2_4758">
<rect width="40" height="40" fill="white"/>
</clipPath>
</defs>
</svg>
