<svg width="40" height="40" viewBox="0 0 40 40" fill="none" xmlns="http://www.w3.org/2000/svg">
<g clip-path="url(#clip0_2_4771)">
<path d="M39.3688 24.8375C38.416 28.6792 36.3447 32.1518 33.4174 34.8155C30.4901 37.4792 26.8383 39.2143 22.9244 39.801C19.0106 40.3878 15.0106 39.7998 11.4311 38.1115C7.85156 36.4232 4.85339 33.7106 2.81621 30.3171C0.779018 26.9236 -0.205573 23.0018 -0.0129032 19.0483C0.179767 15.0948 1.54103 11.2874 3.89854 8.1081C6.25604 4.92883 9.50377 2.52069 13.2305 1.1886C16.9572 -0.143497 20.9954 -0.339645 24.8336 0.624991C29.9671 1.91514 34.3797 5.18823 37.1043 9.72685C39.8289 14.2655 40.6433 19.6994 39.3688 24.8375Z" fill="#000101"/>
<g opacity="0.24">
<path d="M19.9969 39.9999C16.9625 39.995 13.969 39.2994 11.2432 37.9659C8.51735 36.6324 6.13071 34.6959 4.26405 32.3032C2.39738 29.9105 1.09965 27.1243 0.469146 24.1556C-0.161355 21.187 -0.108084 18.1137 0.624924 15.1687C1.9135 10.0333 5.18552 5.61846 9.72359 2.89215C14.2617 0.165829 19.6955 -0.649489 24.8336 0.624944C29.5421 1.83031 33.6504 4.70948 36.3907 8.72422C39.1309 12.739 40.3154 17.6144 39.7227 22.4391C39.1301 27.2638 36.8008 31.7075 33.1704 34.9395C29.54 38.1714 24.857 39.9703 19.9969 39.9999ZM19.9969 3.74994C16.3728 3.75276 12.8536 4.96737 9.99907 7.20063C7.14452 9.43388 5.11847 12.5576 4.24311 16.0749C3.35535 20.1995 4.10631 24.5077 6.3372 28.0885C8.56809 31.6693 12.104 34.2419 16.1971 35.2623C20.2903 36.2827 24.6198 35.6709 28.2701 33.5563C31.9204 31.4416 34.6053 27.99 35.7569 23.9312C36.7981 19.7508 36.1369 15.328 33.9187 11.635C31.7004 7.94201 28.1067 5.28118 23.9275 4.23744C22.6418 3.91712 21.322 3.75343 19.9969 3.74994Z" fill="white"/>
</g>
<g opacity="0.3">
<path d="M38.8002 13.2063L0.256257 23.2063C-0.539622 18.2886 0.528113 13.251 3.25047 9.07924C5.97284 4.90753 10.1538 1.90212 14.9751 0.65127C19.7964 -0.599585 24.9109 -0.00583497 29.3175 2.3163C33.7242 4.63844 37.1057 8.5218 38.8002 13.2063Z" fill="white"/>
</g>
<path d="M35.7569 23.9313C34.9801 27.0503 33.2958 29.8689 30.9172 32.0304C28.5386 34.192 25.5724 35.5994 22.3939 36.0748C19.2154 36.5501 15.9673 36.0719 13.0606 34.7008C10.1538 33.3297 7.71889 31.1271 6.06384 28.3718C4.40879 25.6164 3.60795 22.4321 3.7626 19.2214C3.91726 16.0108 5.02047 12.9182 6.9327 10.3347C8.84492 7.75127 11.4802 5.79304 14.5054 4.70773C17.5305 3.62242 20.8094 3.45879 23.9275 4.23753C28.1067 5.28127 31.7004 7.94209 33.9186 11.6351C36.1369 15.328 36.7981 19.7509 35.7569 23.9313Z" fill="#000101"/>
<path d="M13.4604 24.0063C13.5183 23.9473 13.5873 23.9003 13.6635 23.8681C13.7396 23.8359 13.8214 23.8192 13.9041 23.8188H29.4017C29.4884 23.8237 29.5698 23.8625 29.6283 23.9268C29.6867 23.9911 29.7176 24.0758 29.7141 24.1626C29.7088 24.241 29.6781 24.3156 29.6267 24.3751L26.5646 27.4313C26.5068 27.4904 26.4377 27.5374 26.3616 27.5696C26.2854 27.6018 26.2036 27.6185 26.121 27.6188H10.6234C10.5563 27.6231 10.4897 27.6061 10.4329 27.5703C10.3761 27.5344 10.332 27.4815 10.3071 27.4191C10.2821 27.3568 10.2775 27.2881 10.2939 27.2229C10.3103 27.1578 10.3469 27.0995 10.3984 27.0563L13.4604 24.0063Z" fill="url(#paint0_linear_2_4771)"/>
<path d="M13.4604 12.5688C13.5183 12.5098 13.5873 12.4628 13.6635 12.4306C13.7396 12.3984 13.8214 12.3817 13.9041 12.3813H29.4017C29.4438 12.3813 29.4855 12.3898 29.5242 12.4063C29.563 12.4228 29.598 12.4469 29.6272 12.4773C29.6563 12.5076 29.6791 12.5435 29.694 12.5829C29.709 12.6223 29.7158 12.6643 29.7141 12.7063C29.7134 12.7876 29.6821 12.8657 29.6267 12.9251L26.5646 15.9938C26.5068 16.0529 26.4377 16.0999 26.3616 16.1321C26.2854 16.1643 26.2036 16.181 26.121 16.1813H10.6234C10.5366 16.1765 10.4552 16.1377 10.3968 16.0734C10.3384 16.0091 10.3075 15.9244 10.3109 15.8376C10.3163 15.7591 10.347 15.6846 10.3984 15.6251L13.4604 12.5688Z" fill="url(#paint1_linear_2_4771)"/>
<path d="M26.5646 18.25C26.5068 18.1909 26.4377 18.144 26.3616 18.1118C26.2854 18.0796 26.2036 18.0628 26.121 18.0625H10.6234C10.5366 18.0674 10.4552 18.1061 10.3968 18.1704C10.3384 18.2347 10.3075 18.3194 10.3109 18.4063C10.3163 18.4847 10.347 18.5593 10.3984 18.6188L13.4604 21.6687C13.5183 21.7278 13.5873 21.7748 13.6635 21.807C13.7396 21.8392 13.8214 21.8559 13.9041 21.8563H29.4017C29.4435 21.8554 29.4848 21.8464 29.5232 21.8296C29.5615 21.8128 29.5962 21.7887 29.6252 21.7585C29.6543 21.7283 29.677 21.6927 29.6923 21.6537C29.7075 21.6147 29.715 21.5731 29.7141 21.5313C29.7134 21.45 29.6821 21.3719 29.6267 21.3125L26.5646 18.25Z" fill="url(#paint2_linear_2_4771)"/>
</g>
<defs>
<linearGradient id="paint0_linear_2_4771" x1="28.783" y1="12.8439" x2="16.8761" y2="30.2984" gradientUnits="userSpaceOnUse">
<stop stop-color="#00FFA3"/>
<stop offset="1" stop-color="#DC1FFF"/>
</linearGradient>
<linearGradient id="paint1_linear_2_4771" x1="23.4651" y1="9.2126" x2="11.5582" y2="26.6671" gradientUnits="userSpaceOnUse">
<stop stop-color="#00FFA3"/>
<stop offset="1" stop-color="#DC1FFF"/>
</linearGradient>
<linearGradient id="paint2_linear_2_4771" x1="26.1147" y1="11.0187" x2="14.2078" y2="28.4733" gradientUnits="userSpaceOnUse">
<stop stop-color="#00FFA3"/>
<stop offset="1" stop-color="#DC1FFF"/>
</linearGradient>
<clipPath id="clip0_2_4771">
<rect width="40" height="40" fill="white"/>
</clipPath>
</defs>
</svg>
