<svg width="40" height="40" viewBox="0 0 40 40" fill="none" xmlns="http://www.w3.org/2000/svg">
<g clip-path="url(#clip0_2_4744)">
<path d="M20 40C31.0457 40 40 31.0457 40 20C40 8.95431 31.0457 0 20 0C8.95431 0 0 8.95431 0 20C0 31.0457 8.95431 40 20 40Z" fill="url(#paint0_linear_2_4744)"/>
<path d="M22.08 22.1401L20.716 25.8721C20.69 25.9785 20.69 26.0896 20.716 26.1961L23.056 32.6001L25.76 31.0401L22.51 22.1401C22.4977 22.0924 22.4699 22.0501 22.431 22.0199C22.3921 21.9898 22.3442 21.9734 22.295 21.9734C22.2457 21.9734 22.1979 21.9898 22.159 22.0199C22.12 22.0501 22.0923 22.0924 22.08 22.1401Z" fill="url(#paint1_linear_2_4744)"/>
<path d="M24.812 15.8719C24.8019 15.8429 24.7862 15.8161 24.7657 15.7932C24.7453 15.7702 24.7205 15.7515 24.6928 15.7382C24.6651 15.7248 24.6351 15.717 24.6044 15.7152C24.5737 15.7135 24.543 15.7178 24.514 15.7279C24.4803 15.7388 24.4497 15.7575 24.4247 15.7826C24.3996 15.8076 24.3809 15.8382 24.37 15.8719L23 19.5999C22.974 19.7063 22.974 19.8175 23 19.9239L26.9 30.4179L29.606 28.8579L24.872 15.8579L24.812 15.8719Z" fill="url(#paint2_linear_2_4744)"/>
<path d="M20 7.70608C20.0656 7.68914 20.1344 7.68914 20.2 7.70608L30.498 13.6481C30.5576 13.6825 30.6073 13.7316 30.6424 13.7908C30.6774 13.85 30.6966 13.9173 30.698 13.9861V25.8841C30.6966 25.9529 30.6774 26.0201 30.6424 26.0793C30.6073 26.1385 30.5576 26.1877 30.498 26.2221L20.2 32.1781C20.1396 32.2144 20.0705 32.2336 20 32.2336C19.9296 32.2336 19.8604 32.2144 19.8 32.1781L9.50003 26.2881C9.43802 26.2566 9.38627 26.208 9.35085 26.1482C9.31543 26.0883 9.2978 26.0196 9.30003 25.9501V14.0381C9.3013 13.9711 9.32053 13.9057 9.35571 13.8487C9.39089 13.7917 9.44073 13.7452 9.50003 13.7141L19.8 7.75808C19.8653 7.73897 19.9347 7.73897 20 7.75808V7.70608ZM20 5.97608C19.6272 5.97561 19.2604 6.0699 18.934 6.25008L8.62203 12.2001C8.29796 12.3841 8.02853 12.6509 7.84125 12.9731C7.65397 13.2953 7.55555 13.6614 7.55603 14.0341V25.9441C7.55112 26.3211 7.64743 26.6926 7.83492 27.0197C8.02242 27.3469 8.29423 27.6177 8.62203 27.8041L18.934 33.7581C19.2606 33.9379 19.6273 34.0322 20 34.0322C20.3728 34.0322 20.7395 33.9379 21.066 33.7581L31.378 27.8001C31.7018 27.6157 31.971 27.3489 32.1583 27.0268C32.3455 26.7046 32.4441 26.3387 32.444 25.9661V14.0381C32.4456 13.6646 32.3477 13.2975 32.1604 12.9745C31.973 12.6514 31.703 12.3841 31.378 12.2001L21.054 6.25008C20.7318 6.0703 20.369 5.97598 20 5.97608Z" fill="url(#paint3_linear_2_4744)"/>
<path d="M13.174 30.436L14.122 27.834L16.034 29.408L14.252 31.046L13.174 30.436Z" fill="#213147"/>
<path d="M19.128 13.2H16.528C16.4364 13.2001 16.3469 13.2273 16.2707 13.2782C16.1946 13.3291 16.1352 13.4014 16.1 13.486L10.468 28.862L13.174 30.4L19.35 13.492C19.3594 13.463 19.3629 13.4324 19.3604 13.402C19.3579 13.3717 19.3495 13.3421 19.3355 13.3149C19.3216 13.2878 19.3025 13.2637 19.2792 13.244C19.256 13.2243 19.229 13.2093 19.2 13.2C19.1787 13.1925 19.1565 13.1878 19.134 13.186L19.128 13.2Z" fill="white"/>
<path d="M23.706 13.2001H21.106C21.0107 13.1986 20.9172 13.2264 20.8382 13.2797C20.7592 13.333 20.6984 13.4092 20.664 13.4981L14.252 31.0461L16.958 32.6001L23.902 13.4861C23.925 13.4345 23.9273 13.3759 23.9083 13.3227C23.8893 13.2694 23.8505 13.2255 23.8 13.2001C23.7702 13.1856 23.7372 13.1787 23.704 13.1801L23.706 13.2001Z" fill="white"/>
</g>
<defs>
<linearGradient id="paint0_linear_2_4744" x1="20" y1="40" x2="20" y2="0" gradientUnits="userSpaceOnUse">
<stop stop-color="#141E2B"/>
<stop offset="1" stop-color="#3B577D"/>
</linearGradient>
<linearGradient id="paint1_linear_2_4744" x1="21.78" y1="24.1421" x2="23.828" y2="30.4321" gradientUnits="userSpaceOnUse">
<stop stop-color="#12AAFF"/>
<stop offset="1" stop-color="#0B689C"/>
</linearGradient>
<linearGradient id="paint2_linear_2_4744" x1="23.858" y1="17.4879" x2="27.646" y2="28.1739" gradientUnits="userSpaceOnUse">
<stop stop-color="#12AAFF"/>
<stop offset="1" stop-color="#0B689C"/>
</linearGradient>
<linearGradient id="paint3_linear_2_4744" x1="20" y1="34.0241" x2="20" y2="5.97608" gradientUnits="userSpaceOnUse">
<stop stop-color="#87B0CC"/>
<stop offset="1" stop-color="#A9DBFF"/>
</linearGradient>
<clipPath id="clip0_2_4744">
<rect width="40" height="40" fill="white"/>
</clipPath>
</defs>
</svg>
