<svg width="40" height="40" viewBox="0 0 40 40" fill="none" xmlns="http://www.w3.org/2000/svg">
<path d="M20 1.66675C9.83335 1.66675 1.66669 9.83342 1.66669 20.0001C1.66669 30.1667 9.83335 38.3334 20 38.3334C30.1667 38.3334 38.3334 30.1667 38.3334 20.0001C38.3334 9.83342 30.1667 1.66675 20 1.66675ZM31.6667 21.0001L25.1667 24.6667L23.3334 23.6667V20.8334L25.1667 21.8334L29.1667 19.5001V15.1667L25.1667 13.0001L21.1667 15.1667V26.3334L14.8334 30.0001L8.33335 26.3334V19.0001L14.8334 15.3334L16.6667 16.3334V19.1667L14.8334 18.1667L10.8334 20.5001V25.0001L14.8334 27.1667L17.6667 25.5001L18.8334 24.8334V13.6667L25.1667 10.0001L31.6667 13.6667V21.0001Z" fill="#8E34D5"/>
</svg>
